<svg width="19" height="10" viewBox="0 0 19 10" fill="none" xmlns="http://www.w3.org/2000/svg">
<path d="M18.7469 1.42322L10.111 9.75562C10.0308 9.83309 9.93554 9.89455 9.8307 9.93649C9.72587 9.97842 9.61349 10 9.5 10C9.38651 10 9.27413 9.97842 9.16929 9.93649C9.06446 9.89455 8.96921 9.83309 8.88901 9.75562L0.253081 1.42322C0.0910359 1.26687 0 1.05482 0 0.833703C0 0.612592 0.0910359 0.400535 0.253081 0.244186C0.415126 0.0878359 0.634906 0 0.864073 0C1.09324 0 1.31302 0.0878359 1.47506 0.244186L9.5 7.98811L17.5249 0.244186C17.6052 0.166769 17.7004 0.105359 17.8053 0.0634615C17.9101 0.021564 18.0225 0 18.1359 0C18.2494 0 18.3618 0.021564 18.4666 0.0634615C18.5714 0.105359 18.6667 0.166769 18.7469 0.244186C18.8272 0.321602 18.8908 0.413509 18.9342 0.514659C18.9776 0.615808 19 0.72422 19 0.833703C19 0.943187 18.9776 1.0516 18.9342 1.15275C18.8908 1.2539 18.8272 1.3458 18.7469 1.42322Z" fill="black"/>
</svg>
