<svg width="30" height="27" viewBox="0 0 30 27" fill="none" xmlns="http://www.w3.org/2000/svg">
<path d="M12.8381 24.5012C12.8381 24.8967 12.7208 25.2834 12.5011 25.6123C12.2813 25.9412 11.969 26.1975 11.6035 26.3489C11.238 26.5003 10.8359 26.5399 10.448 26.4627C10.06 26.3856 9.70363 26.1951 9.42392 25.9154C9.14422 25.6357 8.95373 25.2793 8.87656 24.8913C8.79939 24.5034 8.839 24.1012 8.99038 23.7358C9.14175 23.3703 9.3981 23.058 9.72699 22.8382C10.0559 22.6185 10.4426 22.5012 10.8381 22.5012C11.3686 22.5012 11.8773 22.7119 12.2523 23.0869C12.6274 23.462 12.8381 23.9707 12.8381 24.5012ZM23.8381 22.5012C23.4426 22.5012 23.0559 22.6185 22.727 22.8382C22.3981 23.058 22.1418 23.3703 21.9904 23.7358C21.839 24.1012 21.7994 24.5034 21.8766 24.8913C21.9537 25.2793 22.1442 25.6357 22.4239 25.9154C22.7036 26.1951 23.06 26.3856 23.448 26.4627C23.8359 26.5399 24.2381 26.5003 24.6035 26.3489C24.969 26.1975 25.2813 25.9412 25.5011 25.6123C25.7208 25.2834 25.8381 24.8967 25.8381 24.5012C25.8381 23.9707 25.6274 23.462 25.2523 23.0869C24.8773 22.7119 24.3686 22.5012 23.8381 22.5012ZM29.7944 6.79491L26.2281 18.3837C26.0413 18.998 25.6615 19.5358 25.145 19.9172C24.6284 20.2986 24.0027 20.5034 23.3606 20.5012H11.3469C10.6956 20.4987 10.0626 20.2854 9.54277 19.893C9.0229 19.5007 8.64412 18.9505 8.46313 18.3249L3.94063 2.50116H1.83813C1.57292 2.50116 1.31856 2.3958 1.13103 2.20827C0.943492 2.02073 0.838135 1.76638 0.838135 1.50116C0.838135 1.23594 0.943492 0.981589 1.13103 0.794053C1.31856 0.606516 1.57292 0.50116 1.83813 0.50116H3.94063C4.3749 0.5026 4.79701 0.644645 5.1438 0.906032C5.49059 1.16742 5.7434 1.53409 5.86438 1.95116L6.87813 5.50116H28.8381C28.9946 5.5011 29.1489 5.53777 29.2887 5.60822C29.4284 5.67867 29.5497 5.78092 29.6427 5.90677C29.7357 6.03261 29.7979 6.17853 29.8242 6.33279C29.8506 6.48704 29.8404 6.64532 29.7944 6.79491ZM27.4844 7.50116H7.44938L10.3856 17.7762C10.4454 17.985 10.5715 18.1687 10.7449 18.2995C10.9184 18.4303 11.1297 18.5011 11.3469 18.5012H23.3606C23.5746 18.5012 23.783 18.4327 23.9551 18.3056C24.1272 18.1784 24.254 17.9994 24.3169 17.7949L27.4844 7.50116Z" fill="black"/>
</svg>
