<svg width="11" height="10" viewBox="0 0 11 10" fill="none" xmlns="http://www.w3.org/2000/svg">
<path d="M10.8656 5.35373L6.74072 9.85348C6.65472 9.9473 6.53808 10 6.41646 10C6.29484 10 6.1782 9.9473 6.0922 9.85348C6.0062 9.75966 5.95788 9.63242 5.95788 9.49975C5.95788 9.36707 6.0062 9.23983 6.0922 9.14602L9.43506 5.49997H0.458318C0.336765 5.49997 0.22019 5.4473 0.134238 5.35353C0.0482871 5.25977 0 5.1326 0 5C0 4.8674 0.0482871 4.74023 0.134238 4.64647C0.22019 4.5527 0.336765 4.50003 0.458318 4.50003H9.43506L6.0922 0.85398C6.0062 0.760165 5.95788 0.632925 5.95788 0.50025C5.95788 0.367576 6.0062 0.240335 6.0922 0.14652C6.1782 0.0527047 6.29484 0 6.41646 0C6.53808 0 6.65472 0.0527047 6.74072 0.14652L10.8656 4.64627C10.9082 4.6927 10.942 4.74784 10.9651 4.80854C10.9881 4.86924 11 4.9343 11 5C11 5.0657 10.9881 5.13076 10.9651 5.19146C10.942 5.25215 10.9082 5.3073 10.8656 5.35373Z" fill="white"/>
</svg>
