<svg width="17" height="16" viewBox="0 0 17 16" fill="none" xmlns="http://www.w3.org/2000/svg">
<path d="M16.3462 0.715576H0.653846C0.480435 0.715576 0.314127 0.795923 0.191507 0.938941C0.0688871 1.08196 0 1.27593 0 1.47819V14.4426C0 14.8471 0.137774 15.2351 0.383014 15.5211C0.628254 15.8072 0.960871 15.9678 1.30769 15.9678H15.6923C16.0391 15.9678 16.3717 15.8072 16.617 15.5211C16.8622 15.2351 17 14.8471 17 14.4426V1.47819C17 1.27593 16.9311 1.08196 16.8085 0.938941C16.6859 0.795923 16.5196 0.715576 16.3462 0.715576ZM14.665 2.2408L8.5 8.83264L2.33505 2.2408H14.665ZM15.6923 14.4426H1.30769V3.21218L8.05784 10.4294C8.17846 10.5585 8.33625 10.6302 8.5 10.6302C8.66375 10.6302 8.82154 10.5585 8.94216 10.4294L15.6923 3.21218V14.4426Z" fill="white"/>
</svg>
