<svg width="64" height="64" viewBox="0 0 64 64" fill="none" xmlns="http://www.w3.org/2000/svg">
<path d="M32 0.3125C25.7328 0.3125 19.6064 2.17094 14.3954 5.65281C9.1844 9.13467 5.12293 14.0836 2.72458 19.8737C0.32623 25.6639 -0.301288 32.0352 0.921381 38.1819C2.14405 44.3287 5.16199 49.9749 9.59357 54.4064C14.0251 58.838 19.6713 61.856 25.8181 63.0786C31.9649 64.3013 38.3362 63.6738 44.1263 61.2754C49.9164 58.8771 54.8653 54.8156 58.3472 49.6046C61.8291 44.3936 63.6875 38.2672 63.6875 32C63.6786 23.5987 60.3373 15.544 54.3967 9.60335C48.456 3.66272 40.4013 0.321372 32 0.3125ZM32 58.8125C26.697 58.8125 21.5131 57.24 17.1038 54.2938C12.6945 51.3476 9.25787 47.16 7.22849 42.2607C5.19912 37.3614 4.66814 31.9703 5.70271 26.7691C6.73727 21.568 9.29092 16.7905 13.0407 13.0407C16.7905 9.2909 21.568 6.73726 26.7692 5.70269C31.9703 4.66813 37.3614 5.19911 42.2607 7.22848C47.1601 9.25785 51.3476 12.6945 54.2938 17.1038C57.24 21.5131 58.8125 26.697 58.8125 32C58.8045 39.1086 55.977 45.9238 50.9504 50.9504C45.9238 55.977 39.1087 58.8044 32 58.8125ZM35.6563 32C35.6563 32.7231 35.4418 33.43 35.0401 34.0313C34.6383 34.6326 34.0673 35.1012 33.3992 35.3779C32.7311 35.6547 31.996 35.7271 31.2867 35.586C30.5775 35.4449 29.926 35.0967 29.4147 34.5854C28.9033 34.074 28.5551 33.4225 28.414 32.7133C28.2729 32.0041 28.3453 31.2689 28.6221 30.6008C28.8988 29.9327 29.3674 29.3617 29.9687 28.9599C30.57 28.5582 31.2769 28.3438 32 28.3438C32.9697 28.3438 33.8997 28.729 34.5854 29.4146C35.271 30.1003 35.6563 31.0303 35.6563 32ZM49.0625 32C49.0625 32.7231 48.8481 33.43 48.4463 34.0313C48.0446 34.6326 47.4735 35.1012 46.8054 35.3779C46.1374 35.6547 45.4022 35.7271 44.693 35.586C43.9837 35.4449 43.3322 35.0967 42.8209 34.5854C42.3096 34.074 41.9613 33.4225 41.8203 32.7133C41.6792 32.0041 41.7516 31.2689 42.0283 30.6008C42.3051 29.9327 42.7737 29.3617 43.375 28.9599C43.9762 28.5582 44.6831 28.3438 45.4063 28.3438C46.376 28.3438 47.3059 28.729 47.9916 29.4146C48.6773 30.1003 49.0625 31.0303 49.0625 32ZM22.25 32C22.25 32.7231 22.0356 33.43 21.6338 34.0313C21.2321 34.6326 20.661 35.1012 19.993 35.3779C19.3249 35.6547 18.5897 35.7271 17.8805 35.586C17.1712 35.4449 16.5197 35.0967 16.0084 34.5854C15.4971 34.074 15.1488 33.4225 15.0078 32.7133C14.8667 32.0041 14.9391 31.2689 15.2158 30.6008C15.4926 29.9327 15.9612 29.3617 16.5625 28.9599C17.1637 28.5582 17.8706 28.3438 18.5938 28.3438C19.5635 28.3438 20.4934 28.729 21.1791 29.4146C21.8648 30.1003 22.25 31.0303 22.25 32Z" fill="#1C490C"/>
</svg>
